<?xml version="1.0" encoding="utf-8"?>
<!-- Generator: Adobe Illustrator 24.1.1, SVG Export Plug-In . SVG Version: 6.00 Build 0)  -->
<svg version="1.1" id="Capa_6" xmlns="http://www.w3.org/2000/svg" xmlns:xlink="http://www.w3.org/1999/xlink" x="0px" y="0px"
	 viewBox="0 0 357.851 400" enable-background="new 0 0 357.851 400" xml:space="preserve">
<g>
	<g opacity="0.06">
		<polygon fill="#197DE5" points="193.698,277.985 196.485,283.019 193.278,314.008 176.01,312.958 172.081,310.281 
			175.679,277.461 		"/>
		<polygon fill="#197DE5" points="113.154,313.697 196.995,318.476 205.075,239.304 205.917,239.39 197.755,319.366 
			112.974,314.535 		"/>
		<polygon fill="#197DE5" points="148.347,251.626 141.452,311.118 122.078,309.713 116.819,307.508 124.791,244.257 
			142.679,244.359 		"/>
		<polygon fill="#197DE5" points="169.079,312.421 169.067,312.541 168.718,312.398 152.758,311.406 146.703,309.063 
			144.449,308.946 150.854,254.376 168.783,254.608 174.03,262.097 169.142,311.772 171.017,312.541 		"/>
		<path fill="#197DE5" d="M178.954,260.439c-2.222-1.641-4.44-3.706-6.788-5.894c-8.836-8.229-19.835-18.476-41.905-16.565
			l-0.072-0.844c22.441-1.932,33.596,8.446,42.554,16.79c2.33,2.17,4.531,4.22,6.714,5.831c10.252,7.569,19.719,8.074,19.813,8.078
			l-0.037,0.846C199.136,268.678,189.427,268.171,178.954,260.439z"/>
	</g>
	<g>
		<polygon fill-rule="evenodd" clip-rule="evenodd" fill="#19B8FF" points="160.444,303.738 178.594,304.682 182.061,271.442 
			164.042,270.918 		"/>
		<polygon fill-rule="evenodd" clip-rule="evenodd" fill="#197DE5" points="132.813,302.402 150.962,303.346 157.146,248.065 
			139.218,247.833 		"/>
		<polygon fill-rule="evenodd" clip-rule="evenodd" fill="#CC3232" points="105.183,300.965 123.332,301.909 131.043,237.815 
			113.154,237.713 		"/>
		<g>
			<polygon fill="#58FFFE" points="186.118,312.822 194.281,232.846 193.439,232.76 185.358,311.932 95.09,306.788 95.042,307.634 
							"/>
		</g>
		<polygon fill-rule="evenodd" clip-rule="evenodd" fill="#E14192" points="131.043,237.815 136.711,245.082 129.815,304.575 
			123.332,301.909 		"/>
		<polygon fill-rule="evenodd" clip-rule="evenodd" fill="#19B8FF" points="157.146,248.065 162.394,255.553 157.43,305.998 
			150.962,303.346 		"/>
		<polygon fill-rule="evenodd" clip-rule="evenodd" fill="#58FFFE" points="178.594,304.682 181.641,307.464 184.848,276.476 
			182.061,271.442 		"/>
		<polygon fill-rule="evenodd" clip-rule="evenodd" fill="#A42D6F" points="123.332,301.909 129.815,304.575 110.441,303.17 
			105.183,300.965 		"/>
		
			<linearGradient id="SVGID_1_" gradientUnits="userSpaceOnUse" x1="-752.9412" y1="97.0756" x2="-728.3232" y2="97.0756" gradientTransform="matrix(-1 0 0 -1 -593.5602 401.2756)">
			<stop  offset="0" style="stop-color:#0020A9"/>
			<stop  offset="1" style="stop-color:#0063B3"/>
		</linearGradient>
		<polygon fill-rule="evenodd" clip-rule="evenodd" fill="url(#SVGID_1_)" points="134.763,302.402 141.121,304.862 
			159.381,305.998 152.913,303.346 		"/>
		<polygon fill-rule="evenodd" clip-rule="evenodd" fill="#19B8FF" points="160.444,303.738 164.373,306.414 181.641,307.464 
			178.594,304.682 		"/>
		<g>
			<path fill="#58FFFE" d="M187.597,262.139l0.037-0.846c-0.094-0.004-9.561-0.51-19.814-8.079c-2.183-1.611-4.383-3.66-6.713-5.83
				c-8.958-8.343-20.108-18.718-42.555-16.79l0.072,0.844c22.08-1.915,33.071,8.336,41.906,16.565
				c2.348,2.186,4.566,4.252,6.787,5.893C177.79,261.627,187.5,262.135,187.597,262.139z"/>
		</g>
	</g>
</g>
</svg>
