<?xml version="1.0" encoding="utf-8"?>
<!-- Generator: Adobe Illustrator 24.1.1, SVG Export Plug-In . SVG Version: 6.00 Build 0)  -->
<svg version="1.1" id="digital" xmlns="http://www.w3.org/2000/svg" xmlns:xlink="http://www.w3.org/1999/xlink" x="0px" y="0px"
	 viewBox="0 0 357.851 400" enable-background="new 0 0 357.851 400" xml:space="preserve">
<g>
	<g>
		
			<linearGradient id="SVGID_1_" gradientUnits="userSpaceOnUse" x1="-903.0381" y1="191.0168" x2="-880.5815" y2="193.377" gradientTransform="matrix(-1 0 0 -1 -593.5602 401.2756)">
			<stop  offset="0" style="stop-color:#0056E5"/>
			<stop  offset="0.0712" style="stop-color:#136EE9"/>
			<stop  offset="0.202" style="stop-color:#3293F0"/>
			<stop  offset="0.3389" style="stop-color:#4BB2F5"/>
			<stop  offset="0.4814" style="stop-color:#5ECAFA"/>
			<stop  offset="0.6321" style="stop-color:#6CDBFD"/>
			<stop  offset="0.7965" style="stop-color:#74E5FE"/>
			<stop  offset="1" style="stop-color:#77E8FF"/>
		</linearGradient>
		<path fill="url(#SVGID_1_)" d="M270.3,366.994c7.13,0.65,20.18-0.01,22.99-9.7l8.62-80.09l1.34-12.48l21.44-199.2
			c-0.61-8.43-12.21-15.88-20.09-16.63l-21.23,196.87l-5.41,50.17L270.3,366.994z"/>
		
			<linearGradient id="SVGID_2_" gradientUnits="userSpaceOnUse" x1="115.2411" y1="193.403" x2="316.2177" y2="193.403" gradientTransform="matrix(1 0 0 -1 0 401.2756)">
			<stop  offset="0" style="stop-color:#1558FF"/>
			<stop  offset="0.3858" style="stop-color:#232321"/>
			<stop  offset="1" style="stop-color:#F73535"/>
		</linearGradient>
		<path fill="url(#SVGID_2_)" d="M127.704,355.394l141.222,11.55c7.305,0.603,13.77-4.719,14.589-12.003L316.13,63.834
			c0.948-8.382-5.915-15.58-14.33-15.052l-135.501,8.512c-6.422,0.409-11.68,5.269-12.585,11.647l-0.948,6.713l-11.701,82.749
			l-10.71,75.67l-4.752,33.595l-10.225,72.297C114.279,347.701,119.925,354.758,127.704,355.394z"/>
		<path fill="#197DE5" d="M130.204,338.984c0.819,0.302,1.692,0.485,2.607,0.549l134.682,8.943c4.989,0.334,9.363-3.319,9.913-8.286
			l29.92-266.96c0.226-2.015-0.205-3.943-1.11-5.57h-0.011c-1.648-2.985-4.902-4.989-8.63-4.805l-128.993,6.282
			c-4.482,0.215-8.167,3.588-8.803,8.027l-35.61,251.726C123.545,333.36,126.185,337.508,130.204,338.984z"/>
		<path fill="#001B8D" d="M130.204,338.984c0.819,0.302,1.692,0.485,2.607,0.549l134.682,8.943c4.989,0.334,9.363-3.319,9.913-8.286
			l0.97-8.641l28.951-258.32c0.226-2.015-0.205-3.943-1.11-5.57h-0.011c-1.131-0.42-2.37-0.625-3.674-0.56l-128.993,6.282
			c-4.471,0.215-8.167,3.588-8.803,8.027l-34.123,241.199l-1.487,10.538C128.835,335.246,129.255,337.271,130.204,338.984z"/>
	</g>
	<path fill="#31A8FF" d="M260.306,58.18l-0.04,0.313c-0.152,1.186-1.133,2.092-2.327,2.15l-54.715,2.662
		c-1.408,0.069-2.587-1.055-2.587-2.464l0,0c0-1.311,1.025-2.393,2.333-2.464l54.755-2.975
		C259.264,55.319,260.502,56.652,260.306,58.18z"/>
	<path fill="#197DE5" d="M296.783,88.472l-8.889,70.092c-0.506,3.985-3.888,6.978-7.905,6.995l-109.938,0.453
		c-4.898,0.02-8.664-4.325-7.949-9.17l9.647-65.338c0.497-3.363,3.308-5.902,6.705-6.054l110.97-4.961
		C293.822,80.291,297.336,84.105,296.783,88.472z"/>
	<path fill="#002D95" d="M282.068,212.661L279.8,231.43c-0.492,4.074-4.024,7.09-8.124,6.94l-109.771-4.023
		c-4.65-0.17-8.144-4.306-7.536-8.919l2.327-17.638c0.528-4.005,3.995-6.964,8.032-6.857l109.713,2.892
		C279.09,203.947,282.626,208.043,282.068,212.661z"/>
	<path fill="#001B8D" d="M246.868,138.35h32.647c1.66,0,3.061-1.236,3.268-2.883l3.775-30.025c0.254-2.024-1.374-3.791-3.412-3.701
		l-32.83,1.442c-1.604,0.071-2.923,1.287-3.123,2.88l-3.592,28.583C243.353,136.612,244.886,138.35,246.868,138.35z"/>
	<path fill="#0037A2" d="M275.834,253.141l-2.265,18.743c-0.497,4.111-4.086,7.139-8.222,6.936l-109.592-5.378
		c-4.609-0.226-8.041-4.34-7.438-8.915l2.252-17.071c0.531-4.027,4.032-6.993,8.091-6.856l109.605,3.706
		C272.891,244.463,276.39,248.547,275.834,253.141z"/>
	<path fill="#0041AE" d="M295.861,95.736l-125.432,4.704l1.481-10.03c0.403-2.729,2.684-4.789,5.44-4.912l113.663-5.081
		c3.568-0.16,6.419,2.934,5.97,6.477L295.861,95.736z"/>
	<path fill="#58FFFE" d="M176.559,93.624l3.252,3.563l4.147-2.015l0.835-5.22l-3.308-3.205l-4.235,2.563L176.559,93.624z
		 M178.944,91.709c0.19-1.18,1.063-2.025,1.949-1.88c0.887,0.142,1.452,1.214,1.263,2.394c-0.19,1.183-1.063,2.025-1.949,1.884
		C179.32,93.965,178.755,92.892,178.944,91.709z"/>
	<path fill="#00379F" d="M130.204,338.984c0.819,0.302,1.692,0.485,2.607,0.549l134.682,8.943c4.989,0.334,9.363-3.319,9.913-8.286
		l0.97-8.641l-147.762-8.943l-1.487,10.538C128.835,335.246,129.255,337.271,130.204,338.984z"/>
	<path fill="#00379F" d="M184.313,327.757c-0.575,7.629,4.37,14.222,11.046,14.725c6.676,0.504,12.554-5.273,13.13-12.902
		c0.575-7.629-4.37-14.222-11.046-14.725C190.766,314.352,184.888,320.128,184.313,327.757z"/>
	<path fill="#58FFFE" d="M190.75,326.394l-0.91,7.18l10.86,0.75l0.98-7.34l2.57,0.18l-7.59-6.7l-8.48,5.74L190.75,326.394z
		 M193.43,330.514c0.1-1.41,1.08-2.48,2.19-2.39c1.11,0.08,1.92,1.29,1.81,2.69c-0.1,1.41-1.09,2.48-2.19,2.39
		C194.13,333.124,193.32,331.914,193.43,330.514z"/>
	
		<radialGradient id="SVGID_3_" cx="-617.7488" cy="15.276" r="16.8032" gradientTransform="matrix(-0.9479 -0.032 0.0271 -0.8009 -389.7651 319.6821)" gradientUnits="userSpaceOnUse">
		<stop  offset="0" style="stop-color:#02689B"/>
		<stop  offset="1" style="stop-color:#000000"/>
	</radialGradient>
	<path opacity="0.1" fill="url(#SVGID_3_)" enable-background="new    " d="M180.285,326.677
		c-0.251,7.432,6.676,13.699,15.473,13.996s16.132-5.487,16.383-12.919c0.251-7.432-6.676-13.699-15.473-13.996
		S180.536,319.245,180.285,326.677z"/>
	<g>
		<path fill="#FFFFFF" d="M153.144,336.785c0.206,0,0.412-0.071,0.58-0.216c0.37-0.321,0.411-0.881,0.09-1.251l-2.524-2.916
			l3.278-2.956c0.364-0.328,0.393-0.889,0.065-1.252c-0.328-0.364-0.888-0.395-1.252-0.064l-4.569,4.12l3.662,4.229
			C152.648,336.682,152.895,336.785,153.144,336.785z"/>
	</g>
	<g>
		<path fill="#FFFFFF" d="M244.57,342.077c0.184,0,0.369-0.057,0.528-0.175l4.934-3.659l-3.951-4.732
			c-0.313-0.376-0.873-0.427-1.249-0.112c-0.376,0.314-0.426,0.873-0.112,1.249l2.747,3.291l-3.425,2.54
			c-0.393,0.291-0.475,0.847-0.184,1.24C244.031,341.953,244.299,342.077,244.57,342.077z"/>
	</g>
	<g>
		<path fill="#58FFFE" d="M261.797,113.965c-0.104,1.978,1.159,3.652,2.821,3.74c1.662,0.087,3.094-1.446,3.197-3.424
			c0.104-1.978-1.159-3.652-2.821-3.74C263.332,110.455,261.901,111.987,261.797,113.965z"/>
		<path fill="#58FFFE" d="M264.572,118.573c2.946,0.155,5.185,3.123,5.001,6.629l-10.667-0.09
			C259.091,121.605,261.626,118.418,264.572,118.573z"/>
	</g>
	<g>
		<g>
			<polygon fill="#58FFFE" points="241.138,136.401 244.619,103.602 243.777,103.513 240.378,135.54 179.584,134.371 
				179.568,135.216 			"/>
		</g>
		<g>
			<polygon fill="#58FFFE" points="209.841,123.993 220.022,122.968 240.904,116.195 240.642,115.39 219.849,122.145 
				210.022,123.124 199.635,117.356 179.747,115.382 179.663,116.224 199.464,118.19 			"/>
		</g>
		<path fill="#58FFFE" d="M237.557,115.46c-0.163,1.444,0.649,2.721,1.814,2.853c1.165,0.132,2.243-0.932,2.406-2.375
			c0.163-1.444-0.649-2.721-1.814-2.853C238.798,112.952,237.721,114.016,237.557,115.46z"/>
		<path fill="#58FFFE" d="M217.869,122.767c-0.163,1.444,0.649,2.721,1.814,2.853c1.165,0.132,2.243-0.932,2.406-2.376
			c0.163-1.444-0.649-2.721-1.814-2.853C219.11,120.259,218.032,121.323,217.869,122.767z"/>
		<path fill="#D49AF0" d="M207.821,123.379c-0.163,1.444,0.649,2.721,1.814,2.853c1.166,0.132,2.243-0.932,2.406-2.376
			s-0.649-2.721-1.814-2.853C209.062,120.872,207.985,121.935,207.821,123.379z"/>
		<path fill="#58FFFE" d="M197.232,118.147c-0.163,1.444,0.649,2.721,1.814,2.853c1.166,0.132,2.243-0.932,2.406-2.375
			c0.163-1.444-0.649-2.721-1.815-2.853C198.473,115.64,197.396,116.704,197.232,118.147z"/>
		<path fill="#D49AF0" d="M177.466,115.46c-0.163,1.444,0.649,2.721,1.815,2.853c1.165,0.132,2.243-0.932,2.406-2.375
			c0.163-1.444-0.649-2.721-1.814-2.853C178.706,112.952,177.629,114.016,177.466,115.46z"/>
	</g>
	<polygon fill-rule="evenodd" clip-rule="evenodd" fill="#0041AE" points="217.482,107.055 240.611,106.367 241,103.764 
		217.871,104.453 	"/>
	<polygon fill-rule="evenodd" clip-rule="evenodd" fill="#0041AE" points="250.634,144.396 273.768,144.5 274.157,141.898 
		251.023,141.793 	"/>
	<polygon fill-rule="evenodd" clip-rule="evenodd" fill="#197DE5" points="159.997,207.719 183.123,208.447 183.512,205.844 
		160.386,205.116 	"/>
	<polygon fill-rule="evenodd" clip-rule="evenodd" fill="#197DE5" points="243.353,314.068 266.796,315.189 267.185,312.587 
		243.741,311.465 	"/>
	<polygon fill-rule="evenodd" clip-rule="evenodd" fill="#197DE5" points="253.391,318.871 266.417,319.503 266.805,316.901 
		253.78,316.268 	"/>
	<polygon fill-rule="evenodd" clip-rule="evenodd" fill="#197DE5" points="159.657,211.7 171.679,212.064 172.067,209.462 
		160.046,209.097 	"/>
</g>
<g>
	<path fill="#3C8BD9" d="M254.415,84.836c0.101-0.303,0.248-0.581,0.47-0.811c0.89-0.936,2.426-0.766,3.097,0.342
		c0.504,0.842,1.036,1.66,1.553,2.492c0.865,1.381,1.74,2.758,2.595,4.143c0.718,1.158,0.044,2.681-1.287,2.934
		c-0.817,0.153-1.598-0.193-2.052-0.915c-0.759-1.215-1.521-2.426-2.28-3.634c-0.014-0.028-0.034-0.05-0.054-0.075
		c-0.079-0.058-0.115-0.147-0.166-0.225c-0.335-0.543-0.683-1.083-1.019-1.622c-0.216-0.352-0.441-0.697-0.66-1.048
		c-0.195-0.314-0.295-0.66-0.299-1.026C254.32,85.199,254.338,85.009,254.415,84.836"/>
	<path fill="#FABC04" d="M254.415,84.836c-0.035,0.172-0.067,0.343-0.07,0.523c0.002,0.395,0.112,0.76,0.324,1.096
		c0.553,0.872,1.104,1.748,1.654,2.623c0.051,0.078,0.089,0.157,0.14,0.229c-0.264,0.502-0.528,0.997-0.798,1.498
		c-0.369,0.698-0.74,1.403-1.116,2.102c-0.019,0.001-0.023-0.009-0.03-0.021c-0.005-0.038,0.007-0.071,0.015-0.11
		c0.166-0.713-0.018-1.336-0.523-1.856c-0.311-0.313-0.693-0.485-1.128-0.529c-0.568-0.059-1.063,0.108-1.498,0.478
		c-0.078,0.064-0.126,0.156-0.22,0.208c-0.019,0.001-0.029-0.009-0.033-0.021c0.213-0.4,0.42-0.8,0.629-1.2
		c0.872-1.659,1.744-3.314,2.623-4.97C254.394,84.872,254.406,84.856,254.415,84.836"/>
	<path fill="#34A852" d="M251.153,91.073c0.087-0.084,0.167-0.17,0.26-0.251c1.111-0.948,2.859-0.359,3.163,1.066
		c0.074,0.341,0.054,0.673-0.039,1.007c-0.002,0.029-0.008,0.052-0.016,0.081c-0.039,0.079-0.074,0.16-0.12,0.236
		c-0.394,0.709-0.997,1.075-1.811,1.055c-0.933-0.032-1.687-0.701-1.851-1.62c-0.078-0.447-0.004-0.867,0.212-1.264
		c0.045-0.085,0.097-0.164,0.148-0.25C251.122,91.11,251.111,91.075,251.153,91.073"/>
	<path fill="#FABC04" d="M251.153,91.073c-0.019,0.02-0.017,0.052-0.049,0.06c-0.004-0.032,0.011-0.052,0.029-0.078L251.153,91.073"
		/>
	<path fill="#E1C025" d="M254.521,92.976c-0.02-0.031-0.002-0.058,0.016-0.081c0.003,0.003,0.013,0.012,0.02,0.019L254.521,92.976"
		/>
</g>
<g>
	<path fill="#FFFFFF" d="M195.646,91.342c-0.124-0.339-0.331-0.589-0.625-0.752c-0.293-0.162-0.648-0.233-1.072-0.214
		c-0.463,0.021-0.893,0.144-1.29,0.368c-0.396,0.225-0.729,0.532-0.997,0.923c-0.267,0.389-0.441,0.835-0.525,1.337
		c-0.083,0.501-0.054,0.939,0.086,1.314c0.142,0.375,0.377,0.658,0.703,0.849c0.329,0.191,0.725,0.275,1.188,0.254
		c0.623-0.029,1.159-0.226,1.605-0.592c0.447-0.366,0.764-0.849,0.95-1.447l-2.627,0.122l0.151-0.912l3.854-0.178l-0.148,0.892
		c-0.164,0.545-0.438,1.052-0.825,1.521c-0.388,0.469-0.854,0.852-1.398,1.145s-1.123,0.454-1.733,0.482
		c-0.657,0.03-1.232-0.093-1.726-0.372c-0.493-0.279-0.854-0.683-1.083-1.21c-0.229-0.526-0.286-1.13-0.174-1.813
		c0.113-0.682,0.374-1.301,0.782-1.857c0.408-0.558,0.911-1,1.509-1.329c0.597-0.329,1.222-0.509,1.872-0.539
		c0.745-0.035,1.378,0.116,1.897,0.454c0.52,0.339,0.854,0.836,1.007,1.492L195.646,91.342z"/>
	<path fill="#FFFFFF" d="M198.572,95.87c-0.384-0.218-0.66-0.537-0.831-0.957c-0.17-0.42-0.207-0.914-0.113-1.482
		c0.093-0.562,0.299-1.065,0.62-1.512c0.32-0.447,0.714-0.797,1.183-1.051s0.968-0.393,1.497-0.417s0.99,0.07,1.381,0.284
		c0.39,0.213,0.675,0.533,0.851,0.957c0.176,0.423,0.217,0.915,0.124,1.477s-0.304,1.065-0.629,1.512
		c-0.327,0.446-0.73,0.798-1.209,1.056c-0.479,0.259-0.983,0.399-1.514,0.424C199.408,96.185,198.955,96.089,198.572,95.87z
		 M200.962,94.919c0.28-0.151,0.525-0.372,0.733-0.66c0.208-0.29,0.345-0.634,0.411-1.035c0.066-0.402,0.046-0.738-0.063-1.008
		c-0.109-0.271-0.278-0.47-0.511-0.599c-0.231-0.128-0.495-0.186-0.791-0.172c-0.294,0.014-0.579,0.097-0.854,0.248
		c-0.274,0.152-0.509,0.371-0.702,0.655c-0.194,0.284-0.324,0.626-0.391,1.029c-0.099,0.595-0.022,1.048,0.229,1.358
		c0.251,0.31,0.609,0.455,1.072,0.433C200.392,95.154,200.68,95.071,200.962,94.919z"/>
	<path fill="#FFFFFF" d="M204.992,95.573c-0.383-0.218-0.66-0.536-0.83-0.957s-0.208-0.914-0.114-1.482
		c0.093-0.562,0.3-1.065,0.621-1.511c0.32-0.447,0.714-0.798,1.183-1.051c0.469-0.253,0.967-0.393,1.496-0.417
		c0.531-0.024,0.991,0.071,1.382,0.284c0.39,0.214,0.675,0.533,0.851,0.957c0.176,0.423,0.217,0.916,0.124,1.477
		s-0.304,1.065-0.63,1.512s-0.729,0.798-1.209,1.056c-0.479,0.259-0.982,0.399-1.513,0.424
		C205.829,95.889,205.376,95.792,204.992,95.573z M207.383,94.622c0.28-0.152,0.525-0.373,0.732-0.66
		c0.209-0.29,0.346-0.634,0.412-1.035c0.066-0.402,0.046-0.738-0.063-1.008c-0.109-0.27-0.279-0.47-0.511-0.599
		c-0.231-0.128-0.495-0.186-0.791-0.172c-0.294,0.014-0.579,0.097-0.854,0.248c-0.273,0.152-0.509,0.371-0.702,0.655
		c-0.194,0.284-0.324,0.626-0.391,1.028c-0.099,0.595-0.022,1.048,0.229,1.358c0.251,0.31,0.609,0.455,1.072,0.433
		C206.813,94.858,207.102,94.775,207.383,94.622z"/>
	<path fill="#FFFFFF" d="M214.647,90.072c0.305,0.155,0.529,0.355,0.676,0.601l0.133-0.803l1.156-0.054l-0.931,5.617
		c-0.084,0.508-0.267,0.965-0.547,1.374c-0.28,0.407-0.643,0.735-1.086,0.981c-0.444,0.246-0.947,0.382-1.512,0.408
		c-0.752,0.035-1.346-0.112-1.784-0.44c-0.438-0.328-0.642-0.792-0.609-1.39l1.138-0.053c0.04,0.283,0.188,0.507,0.443,0.671
		c0.256,0.164,0.582,0.237,0.978,0.218c0.463-0.021,0.86-0.179,1.191-0.473c0.332-0.294,0.543-0.709,0.632-1.243l0.153-0.923
		c-0.239,0.27-0.539,0.5-0.9,0.694c-0.361,0.192-0.754,0.298-1.176,0.318c-0.483,0.022-0.903-0.08-1.264-0.305
		c-0.357-0.227-0.616-0.553-0.775-0.98c-0.16-0.428-0.193-0.918-0.101-1.473c0.092-0.555,0.288-1.051,0.592-1.49
		c0.302-0.439,0.673-0.787,1.11-1.042c0.439-0.257,0.899-0.396,1.384-0.417C213.977,89.849,214.345,89.916,214.647,90.072z
		 M214.927,91.646c-0.111-0.273-0.282-0.477-0.513-0.613s-0.494-0.196-0.789-0.183s-0.582,0.098-0.861,0.254
		c-0.278,0.155-0.52,0.376-0.724,0.66c-0.203,0.285-0.337,0.617-0.399,0.999c-0.063,0.381-0.04,0.712,0.069,0.992
		c0.111,0.28,0.282,0.49,0.516,0.628c0.233,0.139,0.495,0.201,0.783,0.188c0.295-0.014,0.582-0.1,0.861-0.259
		s0.522-0.384,0.727-0.675c0.205-0.292,0.339-0.628,0.402-1.009C215.063,92.247,215.038,91.92,214.927,91.646z"/>
	<path fill="#FFFFFF" d="M219.584,87.798l-1.23,7.422l-1.146,0.053l1.23-7.422L219.584,87.798z"/>
	<path fill="#FFFFFF" d="M225.293,92.58l-4.237,0.196c-0.04,0.44,0.066,0.787,0.317,1.041c0.25,0.254,0.592,0.37,1.02,0.35
		c0.617-0.028,1.097-0.305,1.438-0.832l1.236-0.058c-0.251,0.516-0.623,0.946-1.117,1.292c-0.492,0.343-1.065,0.532-1.716,0.562
		c-0.53,0.025-0.985-0.072-1.364-0.291c-0.381-0.218-0.654-0.537-0.82-0.958c-0.167-0.42-0.203-0.914-0.109-1.482
		s0.292-1.074,0.597-1.516c0.302-0.441,0.682-0.79,1.141-1.043c0.458-0.253,0.96-0.392,1.503-0.417
		c0.523-0.024,0.97,0.068,1.343,0.276c0.37,0.208,0.637,0.512,0.797,0.913c0.159,0.402,0.195,0.869,0.106,1.404
		C225.392,92.225,225.347,92.412,225.293,92.58z M224.287,91.712c0.063-0.422-0.031-0.753-0.283-0.993
		c-0.254-0.241-0.599-0.35-1.035-0.33c-0.396,0.019-0.755,0.159-1.079,0.423c-0.322,0.263-0.547,0.611-0.671,1.042L224.287,91.712z"
		/>
	<path fill="#FFFFFF" d="M233.143,93.124l-2.929,0.135l-0.74,1.447l-1.196,0.055l3.663-7.096l1.328-0.062l1.349,6.865l-1.208,0.056
		L233.143,93.124z M232.975,92.206l-0.6-3.188l-1.686,3.293L232.975,92.206z"/>
	<path fill="#FFFFFF" d="M236.376,90.158c0.302-0.439,0.673-0.787,1.11-1.042c0.439-0.257,0.902-0.396,1.393-0.418
		c0.363-0.017,0.707,0.046,1.033,0.186c0.326,0.141,0.571,0.337,0.737,0.588l0.442-2.668l1.157-0.054l-1.23,7.422l-1.157,0.054
		L240,93.394c-0.233,0.276-0.529,0.509-0.891,0.698c-0.36,0.188-0.757,0.293-1.186,0.313c-0.483,0.022-0.903-0.08-1.264-0.305
		c-0.357-0.227-0.616-0.553-0.775-0.98c-0.159-0.428-0.192-0.918-0.1-1.473C235.877,91.093,236.073,90.596,236.376,90.158z
		 M240.248,90.476c-0.111-0.273-0.281-0.477-0.512-0.613c-0.232-0.136-0.495-0.196-0.789-0.183
		c-0.296,0.014-0.583,0.098-0.861,0.254c-0.279,0.155-0.521,0.376-0.725,0.659c-0.203,0.286-0.336,0.618-0.398,1
		c-0.063,0.381-0.041,0.712,0.068,0.992c0.111,0.28,0.282,0.49,0.517,0.628c0.232,0.139,0.494,0.201,0.783,0.188
		c0.294-0.014,0.581-0.1,0.861-0.259c0.279-0.159,0.521-0.384,0.726-0.675s0.34-0.628,0.402-1.009
		C240.384,91.077,240.359,90.75,240.248,90.476z"/>
	<path fill="#FFFFFF" d="M243.393,93.919c-0.319-0.141-0.557-0.343-0.714-0.604c-0.156-0.261-0.214-0.559-0.172-0.892l1.188-0.055
		c-0.02,0.234,0.061,0.424,0.239,0.572c0.179,0.146,0.423,0.213,0.731,0.199c0.322-0.015,0.582-0.088,0.78-0.219
		c0.198-0.132,0.314-0.294,0.347-0.489c0.034-0.208-0.04-0.357-0.222-0.448c-0.182-0.092-0.476-0.187-0.886-0.287
		c-0.398-0.095-0.718-0.19-0.961-0.285c-0.245-0.094-0.444-0.248-0.599-0.46c-0.155-0.212-0.202-0.499-0.143-0.86
		c0.049-0.294,0.181-0.566,0.396-0.818c0.215-0.252,0.496-0.456,0.846-0.611c0.349-0.156,0.734-0.244,1.156-0.263
		c0.631-0.029,1.113,0.106,1.446,0.406c0.334,0.3,0.468,0.723,0.404,1.271l-1.147,0.053c0.021-0.247-0.047-0.439-0.204-0.578
		c-0.157-0.139-0.39-0.201-0.698-0.187c-0.302,0.014-0.544,0.082-0.723,0.202c-0.18,0.122-0.285,0.276-0.315,0.462
		c-0.024,0.147,0.009,0.269,0.1,0.364c0.091,0.095,0.207,0.168,0.353,0.218c0.145,0.05,0.361,0.111,0.649,0.185
		c0.384,0.088,0.696,0.181,0.937,0.279c0.239,0.099,0.436,0.251,0.589,0.457c0.152,0.205,0.202,0.485,0.149,0.839
		c-0.052,0.313-0.184,0.599-0.399,0.854c-0.216,0.256-0.495,0.461-0.837,0.616s-0.729,0.243-1.157,0.263
		C244.09,94.121,243.713,94.06,243.393,93.919z"/>
</g>
</svg>
